<svg width="28" height="28" viewBox="0 0 28 28" fill="none" xmlns="http://www.w3.org/2000/svg">
<path d="M28 23.44C28 25.9481 25.9479 28 23.44 28H4.56C2.05195 28 0 25.9481 0 23.44V4.56C0 2.0521 2.05195 0 4.56 0H23.44C25.9479 0 28 2.0521 28 4.56V23.44Z" fill="#AFAFAF"/>
<path d="M9.07834 4.53337C6.5722 4.53337 4.53335 6.57223 4.53335 9.07824V18.9218C4.53335 21.428 6.5722 23.4668 9.07834 23.4668H18.9215C21.4278 23.4668 23.4666 21.428 23.4666 18.9218V9.07824C23.4666 6.57223 21.4278 4.53337 18.9215 4.53337H9.07834ZM18.9215 25.4253H9.07834C5.49212 25.4253 2.57471 22.508 2.57471 18.9218V9.07824C2.57471 5.49229 5.49212 2.57472 9.07834 2.57472H18.9215C22.5077 2.57472 25.4253 5.49229 25.4253 9.07824V18.9218C25.4253 22.508 22.5077 25.4253 18.9215 25.4253Z" fill="#060607"/>
<path d="M13.9999 10.0394C11.8159 10.0394 10.0391 11.8161 10.0391 14.0001C10.0391 16.1842 11.8159 17.961 13.9999 17.961C16.1841 17.961 17.9607 16.1842 17.9607 14.0001C17.9607 11.8161 16.1841 10.0394 13.9999 10.0394ZM13.9999 19.9541C10.7169 19.9541 8.0459 17.2834 8.0459 14.0001C8.0459 10.7171 10.7169 8.04606 13.9999 8.04606C17.2829 8.04606 19.9539 10.7171 19.9539 14.0001C19.9539 17.2834 17.2829 19.9541 13.9999 19.9541Z" fill="#060607"/>
<path d="M21.5631 7.72418C21.5631 8.43522 20.9146 9.01147 20.1149 9.01147C19.3148 9.01147 18.6665 8.43522 18.6665 7.72418C18.6665 7.01315 19.3148 6.43676 20.1149 6.43676C20.9146 6.43676 21.5631 7.01315 21.5631 7.72418Z" fill="#060607"/>
</svg>
