<svg width="519" height="87" viewBox="0 0 519 87" fill="none" xmlns="http://www.w3.org/2000/svg">
<path d="M0.964844 85.9761V1.21045H14.5273V85.9761H0.964844ZM20.8242 85.9761V72.5347C30.1081 72.5347 34.8307 69.144 34.9922 62.3628C34.9922 62.2821 34.9922 62.2013 34.9922 62.1206V25.0659C34.9922 20.2222 32.2878 17.0334 26.8789 15.4995C25.0221 14.9344 23.0039 14.6519 20.8242 14.6519V1.21045C31.1576 1.21045 38.8672 4.60107 43.9531 11.3823C46.9401 15.4188 48.4336 19.98 48.4336 25.0659V62.1206C48.4336 73.342 43.1458 80.6883 32.5703 84.1597C28.9375 85.3706 25.0221 85.9761 20.8242 85.9761ZM56.9102 85.9761L72.8945 14.894H74.7109L80.2812 40.5659L70.2305 85.9761H56.9102ZM79.3125 73.8667L82.0977 60.6675H91.1797L78.1016 1.21045H91.4219L110.918 85.9761H97.4766L94.8125 73.8667H79.3125ZM118.668 85.9761V1.21045H132.23V85.9761H118.668ZM138.406 50.2534V38.144H145.188C152.211 38.144 156.086 34.7938 156.812 28.0933C156.893 27.3667 156.934 26.6805 156.934 26.0347C156.934 19.2534 153.866 15.2573 147.73 14.0464C146.6 13.8849 145.43 13.8042 144.219 13.8042H138.406V1.21045H145.793C156.53 1.45264 163.755 5.44873 167.469 13.1987C169.003 16.4279 169.77 20.1414 169.77 24.3394C169.689 33.3003 166.944 39.799 161.535 43.8354C165.733 46.2573 168.397 50.5763 169.527 56.7925C169.689 57.842 169.81 58.8107 169.891 59.6987L171.949 85.9761H159.355L157.539 64.4214C156.893 57.6401 155.077 53.3615 152.09 51.5854C150.314 50.6974 148.094 50.2534 145.43 50.2534H138.406ZM179.82 85.9761V1.21045H193.383V85.9761H179.82ZM198.469 44.6831L217.844 1.21045H231.527L212.152 44.6831L232.012 85.9761H218.449L198.469 44.6831Z" fill="#424194"/>
<path d="M267.855 62.7261C267.855 71.7677 271.852 78.549 279.844 83.0698C283.961 85.411 287.917 86.5815 291.711 86.5815V73.1401C289.693 73.1401 287.513 72.2521 285.172 70.4761C282.669 68.3771 281.378 65.7938 281.297 62.7261V24.4604C281.297 21.1506 282.669 18.4058 285.414 16.2261C287.271 14.8537 289.37 14.1271 291.711 14.0464V0.60498C282.911 0.60498 276.171 4.39925 271.488 11.9878C269.389 15.5399 268.178 19.0516 267.855 22.5229V62.7261ZM297.887 86.5815C303.053 86.5008 308.18 83.9982 313.266 79.0737C318.029 74.23 320.451 69.4266 320.531 64.6636V43.23H297.887V55.7026H306.848V62.9683C306.848 66.5203 304.991 69.467 301.277 71.8081C299.905 72.6961 298.775 73.1401 297.887 73.1401V86.5815ZM297.887 14.0464C300.874 14.1271 303.336 15.5399 305.273 18.2847C306.404 20.0607 307.049 22.1193 307.211 24.4604V28.3354L320.531 23.4917C320.531 17.2756 317.948 11.7456 312.781 6.90186C308.18 2.70394 303.215 0.60498 297.887 0.60498V14.0464ZM328.523 85.9761L344.508 14.894H346.324L351.895 40.5659L341.844 85.9761H328.523ZM350.926 73.8667L353.711 60.6675H362.793L349.715 1.21045H363.035L382.531 85.9761H369.09L366.426 73.8667H350.926ZM390.281 85.9761V28.5776H391.371L403.844 58.4878V85.9761H390.281ZM390.281 9.9292V1.21045H401.059L426.73 63.5737L443.441 25.7925H444.652V56.5503L431.574 85.9761H421.887L390.281 9.9292ZM450.828 85.9761V1.21045H464.391V85.9761H450.828ZM474.441 85.9761V1.21045H518.52V14.5308H488.004V37.0542H507.137V50.6167H488.004V72.5347H518.52V85.9761H474.441Z" fill="white"/>
</svg>
