<svg width="393" height="218" viewBox="0 0 393 218" fill="none" xmlns="http://www.w3.org/2000/svg">
<path d="M0.765625 99V0.5625H16.5156V99H0.765625ZM23.8281 99V83.3906C34.6094 83.3906 40.0938 79.4531 40.2812 71.5781C40.2812 71.4844 40.2812 71.3906 40.2812 71.2969V28.2656C40.2812 22.6406 37.1406 18.9375 30.8594 17.1562C28.7031 16.5 26.3594 16.1719 23.8281 16.1719V0.5625C35.8281 0.5625 44.7812 4.5 50.6875 12.375C54.1562 17.0625 55.8906 22.3594 55.8906 28.2656V71.2969C55.8906 84.3281 49.75 92.8594 37.4688 96.8906C33.25 98.2969 28.7031 99 23.8281 99ZM65.7344 99L84.2969 16.4531H86.4062L92.875 46.2656L81.2031 99H65.7344ZM91.75 84.9375L94.9844 69.6094H105.531L90.3438 0.5625H105.812L128.453 99H112.844L109.75 84.9375H91.75ZM137.453 99V0.5625H153.203V99H137.453ZM160.375 57.5156V43.4531H168.25C176.406 43.4531 180.906 39.5625 181.75 31.7812C181.844 30.9375 181.891 30.1406 181.891 29.3906C181.891 21.5156 178.328 16.875 171.203 15.4688C169.891 15.2812 168.531 15.1875 167.125 15.1875H160.375V0.5625H168.953C181.422 0.84375 189.812 5.48438 194.125 14.4844C195.906 18.2344 196.797 22.5469 196.797 27.4219C196.703 37.8281 193.516 45.375 187.234 50.0625C192.109 52.875 195.203 57.8906 196.516 65.1094C196.703 66.3281 196.844 67.4531 196.938 68.4844L199.328 99H184.703L182.594 73.9688C181.844 66.0938 179.734 61.125 176.266 59.0625C174.203 58.0312 171.625 57.5156 168.531 57.5156H160.375ZM208.469 99V0.5625H224.219V99H208.469ZM230.125 51.0469L252.625 0.5625H268.516L246.016 51.0469L269.078 99H253.328L230.125 51.0469Z" fill="#424194"/>
<path d="M101.734 190C101.734 200.5 106.375 208.375 115.656 213.625C120.438 216.344 125.031 217.703 129.438 217.703V202.094C127.094 202.094 124.562 201.062 121.844 199C118.938 196.562 117.438 193.562 117.344 190V145.562C117.344 141.719 118.938 138.531 122.125 136C124.281 134.406 126.719 133.562 129.438 133.469V117.859C119.219 117.859 111.391 122.266 105.953 131.078C103.516 135.203 102.109 139.281 101.734 143.312V190ZM136.609 217.703C142.609 217.609 148.562 214.703 154.469 208.984C160 203.359 162.812 197.781 162.906 192.25V167.359H136.609V181.844H147.016V190.281C147.016 194.406 144.859 197.828 140.547 200.547C138.953 201.578 137.641 202.094 136.609 202.094V217.703ZM136.609 133.469C140.078 133.562 142.938 135.203 145.188 138.391C146.5 140.453 147.25 142.844 147.438 145.562V150.062L162.906 144.438C162.906 137.219 159.906 130.797 153.906 125.172C148.562 120.297 142.797 117.859 136.609 117.859V133.469ZM172.188 217L190.75 134.453H192.859L199.328 164.266L187.656 217H172.188ZM198.203 202.938L201.438 187.609H211.984L196.797 118.562H212.266L234.906 217H219.297L216.203 202.938H198.203ZM243.906 217V150.344H245.172L259.656 185.078V217H243.906ZM243.906 128.688V118.562H256.422L286.234 190.984L305.641 147.109H307.047V182.828L291.859 217H280.609L243.906 128.688ZM314.219 217V118.562H329.969V217H314.219ZM341.641 217V118.562H392.828V134.031H357.391V160.188H379.609V175.938H357.391V201.391H392.828V217H341.641Z" fill="white"/>
</svg>
