<svg width="28" height="28" viewBox="0 0 28 28" fill="none" xmlns="http://www.w3.org/2000/svg">
<path fill-rule="evenodd" clip-rule="evenodd" d="M0 13.2473C0 7.00246 0 3.88004 1.94003 1.94003C3.88004 0 7.00246 0 13.2473 0H14.7527C20.9975 0 24.12 0 26.06 1.94003C28 3.88004 28 7.00246 28 13.2473V14.7527C28 20.9975 28 24.12 26.06 26.06C24.12 28 20.9975 28 14.7527 28H13.2473C7.00246 28 3.88004 28 1.94003 26.06C0 24.12 0 20.9975 0 14.7527V13.2473ZM15.6285 17.0518V18.8309C15.6285 19.4619 15.1272 19.9435 14.5003 20.0157C13.8665 20.0888 13.0207 20.0407 12.1114 19.652C10.6274 19.0175 10.4701 18.8732 9.66728 18.1366C9.44845 17.9358 9.18167 17.691 8.82698 17.3803C7.50225 16.2197 5.90291 12.9918 5.26882 11.523C5.04985 10.9756 4.62287 9.78768 4.66667 9.41544C4.71046 9.04321 5.04985 8.91366 5.21408 8.89541H7.39003C7.89365 8.89541 8.14729 9.16911 8.21114 9.30596L9.07331 11.4682C9.41087 12.23 10.294 13.9589 11.1261 14.7801C11.9582 15.6012 12.1297 14.8667 12.1114 14.3969C12.116 13.4845 12.1224 11.6215 12.1114 11.4682C12.1005 11.315 12.097 11.0029 12.043 10.825C11.9655 10.5696 11.7611 10.0231 11.564 9.88074C11.3177 9.70284 11.263 9.3607 11.3314 9.16911C11.4589 8.81193 12.0014 8.89541 12.3807 8.89541H15.0264C15.4753 8.89541 15.5966 9.24211 15.6012 9.41544V13.5484C15.5555 13.9544 15.6805 14.6049 16.5455 13.9589C17.4104 13.313 18.5572 11.2173 19.0225 10.2502C19.0681 10.1453 19.2086 9.83148 19.4057 9.41544C19.6027 8.99941 20.0534 8.89541 20.2542 8.89541H22.2659C23.076 8.81877 22.9816 9.37962 22.9091 9.77126C22.8407 10.1408 21.6135 12.189 20.9932 13.1789C20.7924 13.4572 20.3308 14.104 20.0899 14.4653C19.8491 14.8266 20.1173 15.1815 20.2815 15.3138L21.6911 16.8055C22.2111 17.4031 23.2704 18.7296 23.347 19.2551C23.4237 19.7807 22.9866 19.9576 22.7586 19.9804C22.1609 19.9622 20.8946 19.9367 20.61 19.9804C20.3253 20.0242 20.0169 19.8619 19.8983 19.7752C19.7311 19.6202 19.6475 19.5427 19.5848 19.4814C19.4847 19.3836 19.4944 19.3935 19.3984 19.2918C19.3381 19.228 19.1726 19.043 18.8414 18.6732C18.2086 17.9663 17.3006 17.0726 16.6413 16.8055C15.7763 16.4552 15.6057 16.8237 15.6285 17.0518Z" fill="#AFAFAF"/>
</svg>
